%TF.GenerationSoftware,KiCad,Pcbnew,9.0.1*%
%TF.CreationDate,2025-04-10T00:36:23+08:00*%
%TF.ProjectId,juicePCB,6a756963-6550-4434-922e-6b696361645f,rev?*%
%TF.SameCoordinates,Original*%
%TF.FileFunction,Copper,L2,Bot*%
%TF.FilePolarity,Positive*%
%FSLAX46Y46*%
G04 Gerber Fmt 4.6, Leading zero omitted, Abs format (unit mm)*
G04 Created by KiCad (PCBNEW 9.0.1) date 2025-04-10 00:36:23*
%MOMM*%
%LPD*%
G01*
G04 APERTURE LIST*
G04 Aperture macros list*
%AMRoundRect*
0 Rectangle with rounded corners*
0 $1 Rounding radius*
0 $2 $3 $4 $5 $6 $7 $8 $9 X,Y pos of 4 corners*
0 Add a 4 corners polygon primitive as box body*
4,1,4,$2,$3,$4,$5,$6,$7,$8,$9,$2,$3,0*
0 Add four circle primitives for the rounded corners*
1,1,$1+$1,$2,$3*
1,1,$1+$1,$4,$5*
1,1,$1+$1,$6,$7*
1,1,$1+$1,$8,$9*
0 Add four rect primitives between the rounded corners*
20,1,$1+$1,$2,$3,$4,$5,0*
20,1,$1+$1,$4,$5,$6,$7,0*
20,1,$1+$1,$6,$7,$8,$9,0*
20,1,$1+$1,$8,$9,$2,$3,0*%
%AMHorizOval*
0 Thick line with rounded ends*
0 $1 width*
0 $2 $3 position (X,Y) of the first rounded end (center of the circle)*
0 $4 $5 position (X,Y) of the second rounded end (center of the circle)*
0 Add line between two ends*
20,1,$1,$2,$3,$4,$5,0*
0 Add two circle primitives to create the rounded ends*
1,1,$1,$2,$3*
1,1,$1,$4,$5*%
G04 Aperture macros list end*
%TA.AperFunction,ComponentPad*%
%ADD10C,1.600000*%
%TD*%
%TA.AperFunction,ComponentPad*%
%ADD11HorizOval,1.600000X0.000000X0.000000X0.000000X0.000000X0*%
%TD*%
%TA.AperFunction,ComponentPad*%
%ADD12R,1.800000X1.800000*%
%TD*%
%TA.AperFunction,ComponentPad*%
%ADD13C,1.800000*%
%TD*%
%TA.AperFunction,ComponentPad*%
%ADD14O,1.600000X1.600000*%
%TD*%
%TA.AperFunction,ComponentPad*%
%ADD15C,1.500000*%
%TD*%
%TA.AperFunction,ComponentPad*%
%ADD16HorizOval,1.600000X0.000000X0.000000X0.000000X0.000000X0*%
%TD*%
%TA.AperFunction,ComponentPad*%
%ADD17HorizOval,1.600000X0.000000X0.000000X0.000000X0.000000X0*%
%TD*%
%TA.AperFunction,ComponentPad*%
%ADD18R,1.500000X1.050000*%
%TD*%
%TA.AperFunction,ComponentPad*%
%ADD19O,1.500000X1.050000*%
%TD*%
%TA.AperFunction,ComponentPad*%
%ADD20RoundRect,0.250000X0.550000X-0.550000X0.550000X0.550000X-0.550000X0.550000X-0.550000X-0.550000X0*%
%TD*%
%TA.AperFunction,SMDPad,CuDef*%
%ADD21R,5.080000X1.270000*%
%TD*%
%TA.AperFunction,SMDPad,CuDef*%
%ADD22C,17.800000*%
%TD*%
%TA.AperFunction,Conductor*%
%ADD23C,0.200000*%
%TD*%
G04 APERTURE END LIST*
D10*
%TO.P,R1,1*%
%TO.N,+3V0*%
X151805844Y-119639234D03*
D11*
%TO.P,R1,2*%
%TO.N,Net-(SW1-B)*%
X158047783Y-115268581D03*
%TD*%
D12*
%TO.P,D1,1,K*%
%TO.N,Net-(D1-K)*%
X134386813Y-85453907D03*
D13*
%TO.P,D1,2,A*%
%TO.N,+3V0*%
X136926813Y-85453907D03*
%TD*%
D10*
%TO.P,R2,1*%
%TO.N,Net-(D1-K)*%
X129426813Y-68073907D03*
D14*
%TO.P,R2,2*%
%TO.N,Net-(R2-Pad2)*%
X129426813Y-60453907D03*
%TD*%
D15*
%TO.P,R6,1*%
%TO.N,Net-(Q1-B)*%
X145026813Y-115953907D03*
%TO.P,R6,2*%
%TO.N,Earth*%
X148426813Y-115953907D03*
%TD*%
D10*
%TO.P,R3,1*%
%TO.N,Net-(R2-Pad2)*%
X155926813Y-59953907D03*
D14*
%TO.P,R3,2*%
%TO.N,Net-(Q1-C)*%
X155926813Y-67573907D03*
%TD*%
D10*
%TO.P,R5,1*%
%TO.N,Net-(R4-Pad2)*%
X169241487Y-106074877D03*
D16*
%TO.P,R5,2*%
%TO.N,Net-(Q1-C)*%
X173612139Y-99832938D03*
%TD*%
D10*
%TO.P,R4,1*%
%TO.N,Net-(D2-K)*%
X161232736Y-113147984D03*
D17*
%TO.P,R4,2*%
%TO.N,Net-(R4-Pad2)*%
X166620890Y-107759830D03*
%TD*%
D12*
%TO.P,D2,1,K*%
%TO.N,Net-(D2-K)*%
X153886813Y-84453907D03*
D13*
%TO.P,D2,2,A*%
%TO.N,+3V0*%
X156426813Y-84453907D03*
%TD*%
D18*
%TO.P,Q1,1,E*%
%TO.N,Earth*%
X146926813Y-123993907D03*
D19*
%TO.P,Q1,2,B*%
%TO.N,Net-(Q1-B)*%
X146926813Y-122723907D03*
%TO.P,Q1,3,C*%
%TO.N,Net-(Q1-C)*%
X146926813Y-121453907D03*
%TD*%
D20*
%TO.P,SW1,1,A*%
%TO.N,Net-(Q1-B)*%
X139426813Y-138073907D03*
D10*
%TO.P,SW1,2,B*%
%TO.N,Net-(SW1-B)*%
X139426813Y-130453907D03*
%TD*%
D21*
%TO.P,BT1,1,+*%
%TO.N,+3V0*%
X146926813Y-89468907D03*
X146926813Y-111438907D03*
D22*
%TO.P,BT1,2,-*%
%TO.N,Earth*%
X146926813Y-100453907D03*
%TD*%
D23*
%TO.N,Earth*%
X143975813Y-103404907D02*
X143975813Y-121166047D01*
X147366153Y-115953907D02*
X148426813Y-115953907D01*
X146926813Y-100453907D02*
X144085813Y-103294907D01*
X144085813Y-103294907D02*
X144085813Y-112673567D01*
X143975813Y-121166047D02*
X146803673Y-123993907D01*
X146803673Y-123993907D02*
X146926813Y-123993907D01*
X146926813Y-100453907D02*
X143975813Y-103404907D01*
X144085813Y-112673567D02*
X147366153Y-115953907D01*
%TO.N,+3V0*%
X140941813Y-89468907D02*
X136926813Y-85453907D01*
X151411813Y-89468907D02*
X156426813Y-84453907D01*
X146926813Y-89468907D02*
X140941813Y-89468907D01*
X156127813Y-96642728D02*
X148953992Y-89468907D01*
X148953992Y-111438907D02*
X156127813Y-104265086D01*
X156127813Y-104265086D02*
X156127813Y-96642728D01*
X146926813Y-111438907D02*
X151805844Y-116317938D01*
X146926813Y-89468907D02*
X151411813Y-89468907D01*
X151805844Y-116317938D02*
X151805844Y-119639234D01*
X146926813Y-111438907D02*
X148953992Y-111438907D01*
X148953992Y-89468907D02*
X146926813Y-89468907D01*
%TO.N,Net-(D1-K)*%
X134386813Y-85453907D02*
X133426813Y-85453907D01*
X129426813Y-81453907D02*
X129426813Y-68073907D01*
X133426813Y-85453907D02*
X129426813Y-81453907D01*
%TO.N,Net-(Q1-B)*%
X146701813Y-122723907D02*
X145026813Y-121048907D01*
X145026813Y-121048907D02*
X145026813Y-115953907D01*
X146926813Y-122723907D02*
X146701813Y-122723907D01*
%TO.N,Net-(Q1-C)*%
X171914303Y-108453907D02*
X173426813Y-106941397D01*
X150661863Y-121453907D02*
X146926813Y-121453907D01*
X174926813Y-101147612D02*
X173612139Y-99832938D01*
X160483863Y-115453907D02*
X162926813Y-115453907D01*
X174926813Y-103919902D02*
X174926813Y-101147612D01*
X152572863Y-123364907D02*
X160483863Y-115453907D01*
X152572863Y-123364907D02*
X150661863Y-121453907D01*
X162926813Y-115453907D02*
X169926813Y-108453907D01*
X173426813Y-106941397D02*
X174926813Y-103919902D01*
X169926813Y-108453907D02*
X171914303Y-108453907D01*
%TO.N,Net-(R2-Pad2)*%
X133926813Y-61453907D02*
X133926813Y-70953907D01*
X153426813Y-59953907D02*
X155926813Y-59953907D01*
X151926813Y-70953907D02*
X151926813Y-61453907D01*
X151926813Y-61453907D02*
X153426813Y-59953907D01*
X129426813Y-60453907D02*
X132926813Y-60453907D01*
X133926813Y-70953907D02*
X151926813Y-70953907D01*
X132926813Y-60453907D02*
X133926813Y-61453907D01*
%TD*%
M02*
