%TF.GenerationSoftware,KiCad,Pcbnew,9.0.1*%
%TF.CreationDate,2025-04-10T00:36:24+08:00*%
%TF.ProjectId,juicePCB,6a756963-6550-4434-922e-6b696361645f,rev?*%
%TF.SameCoordinates,Original*%
%TF.FileFunction,Legend,Bot*%
%TF.FilePolarity,Positive*%
%FSLAX46Y46*%
G04 Gerber Fmt 4.6, Leading zero omitted, Abs format (unit mm)*
G04 Created by KiCad (PCBNEW 9.0.1) date 2025-04-10 00:36:24*
%MOMM*%
%LPD*%
G01*
G04 APERTURE LIST*
%ADD10C,0.100000*%
%ADD11C,0.150000*%
%ADD12C,0.120000*%
G04 APERTURE END LIST*
D10*
X142863366Y-141860903D02*
X142656311Y-141088162D01*
X142754908Y-141456134D02*
X142313342Y-141574451D01*
X142421800Y-141979220D02*
X142214745Y-141206480D01*
X141722654Y-142166556D02*
X141614196Y-141761787D01*
X141614196Y-141761787D02*
X141631274Y-141678333D01*
X141631274Y-141678333D02*
X141695008Y-141621816D01*
X141695008Y-141621816D02*
X141842197Y-141582377D01*
X141842197Y-141582377D02*
X141925651Y-141599455D01*
X141712794Y-142129759D02*
X141796248Y-142146836D01*
X141796248Y-142146836D02*
X141980234Y-142097537D01*
X141980234Y-142097537D02*
X142043969Y-142041021D01*
X142043969Y-142041021D02*
X142061046Y-141957567D01*
X142061046Y-141957567D02*
X142041327Y-141883972D01*
X142041327Y-141883972D02*
X141984810Y-141820238D01*
X141984810Y-141820238D02*
X141901356Y-141803160D01*
X141901356Y-141803160D02*
X141717370Y-141852459D01*
X141717370Y-141852459D02*
X141633916Y-141835381D01*
X141013647Y-142317095D02*
X141097101Y-142334172D01*
X141097101Y-142334172D02*
X141244290Y-142294733D01*
X141244290Y-142294733D02*
X141308025Y-142238216D01*
X141308025Y-142238216D02*
X141334962Y-142191559D01*
X141334962Y-142191559D02*
X141352040Y-142108105D01*
X141352040Y-142108105D02*
X141292881Y-141887322D01*
X141292881Y-141887322D02*
X141236364Y-141823588D01*
X141236364Y-141823588D02*
X141189707Y-141796650D01*
X141189707Y-141796650D02*
X141106253Y-141779573D01*
X141106253Y-141779573D02*
X140959065Y-141819012D01*
X140959065Y-141819012D02*
X140895330Y-141875528D01*
X140692333Y-142442630D02*
X140485277Y-141669889D01*
X140539860Y-142167972D02*
X140397955Y-142521508D01*
X140259919Y-142006347D02*
X140633174Y-142221847D01*
X139016740Y-142812725D02*
X139063397Y-142839662D01*
X139063397Y-142839662D02*
X139183648Y-142846880D01*
X139183648Y-142846880D02*
X139257243Y-142827161D01*
X139257243Y-142827161D02*
X139357775Y-142760784D01*
X139357775Y-142760784D02*
X139411649Y-142667470D01*
X139411649Y-142667470D02*
X139428727Y-142584016D01*
X139428727Y-142584016D02*
X139426085Y-142426968D01*
X139426085Y-142426968D02*
X139396506Y-142316576D01*
X139396506Y-142316576D02*
X139320269Y-142179247D01*
X139320269Y-142179247D02*
X139263753Y-142115513D01*
X139263753Y-142115513D02*
X139170439Y-142061638D01*
X139170439Y-142061638D02*
X139050188Y-142054420D01*
X139050188Y-142054420D02*
X138976593Y-142074140D01*
X138976593Y-142074140D02*
X138876061Y-142140516D01*
X138876061Y-142140516D02*
X138849124Y-142187173D01*
X138594894Y-143004637D02*
X138658628Y-142948120D01*
X138658628Y-142948120D02*
X138675706Y-142864666D01*
X138675706Y-142864666D02*
X138498230Y-142202317D01*
X137831304Y-142657093D02*
X137969341Y-143172253D01*
X138162479Y-142568355D02*
X138270937Y-142973123D01*
X138270937Y-142973123D02*
X138253859Y-143056578D01*
X138253859Y-143056578D02*
X138190124Y-143113094D01*
X138190124Y-143113094D02*
X138079733Y-143142674D01*
X138079733Y-143142674D02*
X137996279Y-143125596D01*
X137996279Y-143125596D02*
X137949622Y-143098659D01*
X137601369Y-143270851D02*
X137394314Y-142498110D01*
X137473192Y-142792488D02*
X137389738Y-142775410D01*
X137389738Y-142775410D02*
X137242549Y-142814849D01*
X137242549Y-142814849D02*
X137178815Y-142871366D01*
X137178815Y-142871366D02*
X137151877Y-142918023D01*
X137151877Y-142918023D02*
X137134800Y-143001477D01*
X137134800Y-143001477D02*
X137193958Y-143222260D01*
X137193958Y-143222260D02*
X137250475Y-143285994D01*
X137250475Y-143285994D02*
X137297132Y-143312932D01*
X137297132Y-143312932D02*
X137380586Y-143330009D01*
X137380586Y-143330009D02*
X137527775Y-143290570D01*
X137527775Y-143290570D02*
X137591509Y-143234054D01*
X143885999Y-142880839D02*
X143785467Y-142947216D01*
X143785467Y-142947216D02*
X143601482Y-142996515D01*
X143601482Y-142996515D02*
X143518027Y-142979437D01*
X143518027Y-142979437D02*
X143471371Y-142952500D01*
X143471371Y-142952500D02*
X143414854Y-142888765D01*
X143414854Y-142888765D02*
X143395134Y-142815171D01*
X143395134Y-142815171D02*
X143412212Y-142731716D01*
X143412212Y-142731716D02*
X143439149Y-142685060D01*
X143439149Y-142685060D02*
X143502884Y-142628543D01*
X143502884Y-142628543D02*
X143640213Y-142552307D01*
X143640213Y-142552307D02*
X143703947Y-142495790D01*
X143703947Y-142495790D02*
X143730885Y-142449133D01*
X143730885Y-142449133D02*
X143747962Y-142365679D01*
X143747962Y-142365679D02*
X143728243Y-142292084D01*
X143728243Y-142292084D02*
X143671726Y-142228350D01*
X143671726Y-142228350D02*
X143625069Y-142201412D01*
X143625069Y-142201412D02*
X143541615Y-142184335D01*
X143541615Y-142184335D02*
X143357629Y-142233634D01*
X143357629Y-142233634D02*
X143257097Y-142300010D01*
X143012727Y-143154271D02*
X143076461Y-143097754D01*
X143076461Y-143097754D02*
X143103399Y-143051097D01*
X143103399Y-143051097D02*
X143120476Y-142967643D01*
X143120476Y-142967643D02*
X143061318Y-142746860D01*
X143061318Y-142746860D02*
X143004801Y-142683126D01*
X143004801Y-142683126D02*
X142958144Y-142656188D01*
X142958144Y-142656188D02*
X142874690Y-142639111D01*
X142874690Y-142639111D02*
X142764298Y-142668690D01*
X142764298Y-142668690D02*
X142700564Y-142725207D01*
X142700564Y-142725207D02*
X142673626Y-142771864D01*
X142673626Y-142771864D02*
X142656549Y-142855318D01*
X142656549Y-142855318D02*
X142715707Y-143076101D01*
X142715707Y-143076101D02*
X142772224Y-143139835D01*
X142772224Y-143139835D02*
X142818881Y-143166773D01*
X142818881Y-143166773D02*
X142902335Y-143183850D01*
X142902335Y-143183850D02*
X143012727Y-143154271D01*
X142313580Y-143341607D02*
X142377314Y-143285090D01*
X142377314Y-143285090D02*
X142394392Y-143201636D01*
X142394392Y-143201636D02*
X142216916Y-142539287D01*
X141688027Y-143509223D02*
X141480972Y-142736482D01*
X141678168Y-143472426D02*
X141761622Y-143489504D01*
X141761622Y-143489504D02*
X141908811Y-143450064D01*
X141908811Y-143450064D02*
X141972545Y-143393548D01*
X141972545Y-143393548D02*
X141999483Y-143346891D01*
X141999483Y-143346891D02*
X142016560Y-143263437D01*
X142016560Y-143263437D02*
X141957401Y-143042654D01*
X141957401Y-143042654D02*
X141900885Y-142978919D01*
X141900885Y-142978919D02*
X141854228Y-142951982D01*
X141854228Y-142951982D02*
X141770774Y-142934904D01*
X141770774Y-142934904D02*
X141623585Y-142974343D01*
X141623585Y-142974343D02*
X141559850Y-143030860D01*
X141015818Y-143649902D02*
X141099272Y-143666980D01*
X141099272Y-143666980D02*
X141246461Y-143627540D01*
X141246461Y-143627540D02*
X141310196Y-143571024D01*
X141310196Y-143571024D02*
X141327273Y-143487570D01*
X141327273Y-143487570D02*
X141248395Y-143193192D01*
X141248395Y-143193192D02*
X141191878Y-143129458D01*
X141191878Y-143129458D02*
X141108424Y-143112380D01*
X141108424Y-143112380D02*
X140961235Y-143151819D01*
X140961235Y-143151819D02*
X140897501Y-143208336D01*
X140897501Y-143208336D02*
X140880423Y-143291790D01*
X140880423Y-143291790D02*
X140900143Y-143365384D01*
X140900143Y-143365384D02*
X141287834Y-143340381D01*
X140657706Y-143785297D02*
X140519670Y-143270136D01*
X140559109Y-143417325D02*
X140502592Y-143353590D01*
X140502592Y-143353590D02*
X140455935Y-143326653D01*
X140455935Y-143326653D02*
X140372481Y-143309575D01*
X140372481Y-143309575D02*
X140298887Y-143329295D01*
X139344802Y-143742698D02*
X139443400Y-144110669D01*
X139493925Y-143268910D02*
X139344802Y-143742698D01*
X139344802Y-143742698D02*
X138978764Y-143406947D01*
X138955177Y-144202049D02*
X138854645Y-144268426D01*
X138854645Y-144268426D02*
X138670659Y-144317724D01*
X138670659Y-144317724D02*
X138587205Y-144300647D01*
X138587205Y-144300647D02*
X138540548Y-144273709D01*
X138540548Y-144273709D02*
X138484031Y-144209975D01*
X138484031Y-144209975D02*
X138464312Y-144136381D01*
X138464312Y-144136381D02*
X138481389Y-144052926D01*
X138481389Y-144052926D02*
X138508327Y-144006269D01*
X138508327Y-144006269D02*
X138572061Y-143949753D01*
X138572061Y-143949753D02*
X138709390Y-143873516D01*
X138709390Y-143873516D02*
X138773125Y-143817000D01*
X138773125Y-143817000D02*
X138800062Y-143770343D01*
X138800062Y-143770343D02*
X138817140Y-143686889D01*
X138817140Y-143686889D02*
X138797420Y-143613294D01*
X138797420Y-143613294D02*
X138740904Y-143549560D01*
X138740904Y-143549560D02*
X138694247Y-143522622D01*
X138694247Y-143522622D02*
X138610793Y-143505545D01*
X138610793Y-143505545D02*
X138426807Y-143554844D01*
X138426807Y-143554844D02*
X138326275Y-143621220D01*
X138058835Y-143653441D02*
X138081904Y-144475481D01*
X138081904Y-144475481D02*
X137786819Y-143962962D01*
X137786819Y-143962962D02*
X137787527Y-144554359D01*
X137787527Y-144554359D02*
X137396486Y-143830917D01*
X137336101Y-144635879D02*
X137235569Y-144702256D01*
X137235569Y-144702256D02*
X137051583Y-144751555D01*
X137051583Y-144751555D02*
X136968129Y-144734477D01*
X136968129Y-144734477D02*
X136921472Y-144707540D01*
X136921472Y-144707540D02*
X136864955Y-144643805D01*
X136864955Y-144643805D02*
X136845236Y-144570211D01*
X136845236Y-144570211D02*
X136862313Y-144486757D01*
X136862313Y-144486757D02*
X136889251Y-144440100D01*
X136889251Y-144440100D02*
X136952985Y-144383583D01*
X136952985Y-144383583D02*
X137090314Y-144307347D01*
X137090314Y-144307347D02*
X137154049Y-144250830D01*
X137154049Y-144250830D02*
X137180986Y-144204173D01*
X137180986Y-144204173D02*
X137198064Y-144120719D01*
X137198064Y-144120719D02*
X137178344Y-144047124D01*
X137178344Y-144047124D02*
X137121828Y-143983390D01*
X137121828Y-143983390D02*
X137075171Y-143956452D01*
X137075171Y-143956452D02*
X136991716Y-143939375D01*
X136991716Y-143939375D02*
X136807731Y-143988674D01*
X136807731Y-143988674D02*
X136707199Y-144055050D01*
X134611930Y-77742216D02*
X132490610Y-75620896D01*
X132490610Y-75620896D02*
X133298732Y-77843232D01*
X133298732Y-77843232D02*
X131076396Y-77035110D01*
X131076396Y-77035110D02*
X133197717Y-79156430D01*
X131076397Y-79055414D02*
X130369290Y-79762521D01*
X131177412Y-81176735D02*
X132187564Y-80166582D01*
X132187564Y-80166582D02*
X130066244Y-78045262D01*
X130066244Y-78045262D02*
X129056092Y-79055414D01*
X127742893Y-80368613D02*
X127338832Y-80772674D01*
X127338832Y-80772674D02*
X127237817Y-81075720D01*
X127237817Y-81075720D02*
X127237817Y-81479781D01*
X127237817Y-81479781D02*
X127540863Y-81984857D01*
X127540863Y-81984857D02*
X128247969Y-82691964D01*
X128247969Y-82691964D02*
X128753046Y-82995010D01*
X128753046Y-82995010D02*
X129157107Y-82995010D01*
X129157107Y-82995010D02*
X129460152Y-82893994D01*
X129460152Y-82893994D02*
X129864213Y-82489933D01*
X129864213Y-82489933D02*
X129965229Y-82186888D01*
X129965229Y-82186888D02*
X129965229Y-81782827D01*
X129965229Y-81782827D02*
X129662183Y-81277750D01*
X129662183Y-81277750D02*
X128955076Y-80570643D01*
X128955076Y-80570643D02*
X128450000Y-80267598D01*
X128450000Y-80267598D02*
X128045939Y-80267598D01*
X128045939Y-80267598D02*
X127742893Y-80368613D01*
X126126649Y-81984857D02*
X127742893Y-84611254D01*
X127742893Y-84611254D02*
X125823603Y-83500086D01*
X125823603Y-83500086D02*
X126934771Y-85419376D01*
X126934771Y-85419376D02*
X124308374Y-83803132D01*
X155259823Y-132017704D02*
X153542564Y-133734963D01*
X153542564Y-133734963D02*
X153239518Y-133835978D01*
X153239518Y-133835978D02*
X153037487Y-133835978D01*
X153037487Y-133835978D02*
X152734442Y-133734963D01*
X152734442Y-133734963D02*
X152330381Y-133330902D01*
X152330381Y-133330902D02*
X152229365Y-133027856D01*
X152229365Y-133027856D02*
X152229365Y-132825826D01*
X152229365Y-132825826D02*
X152330381Y-132522780D01*
X152330381Y-132522780D02*
X154047640Y-130805521D01*
X152532411Y-130704506D02*
X150714137Y-131714658D01*
X150714137Y-131714658D02*
X151320228Y-130300445D01*
X151320228Y-130300445D02*
X149906014Y-130906536D01*
X149906014Y-130906536D02*
X150916167Y-129088262D01*
X150815152Y-127573033D02*
X149097893Y-129290292D01*
X149097893Y-129290292D02*
X148794847Y-129391307D01*
X148794847Y-129391307D02*
X148592816Y-129391307D01*
X148592816Y-129391307D02*
X148289771Y-129290292D01*
X148289771Y-129290292D02*
X147885710Y-128886231D01*
X147885710Y-128886231D02*
X147784694Y-128583185D01*
X147784694Y-128583185D02*
X147784694Y-128381155D01*
X147784694Y-128381155D02*
X147885710Y-128078109D01*
X147885710Y-128078109D02*
X149602969Y-126360850D01*
X154403003Y-140716382D02*
X154403003Y-139716382D01*
X154403003Y-139716382D02*
X154022051Y-139716382D01*
X154022051Y-139716382D02*
X153926813Y-139764001D01*
X153926813Y-139764001D02*
X153879194Y-139811620D01*
X153879194Y-139811620D02*
X153831575Y-139906858D01*
X153831575Y-139906858D02*
X153831575Y-140049715D01*
X153831575Y-140049715D02*
X153879194Y-140144953D01*
X153879194Y-140144953D02*
X153926813Y-140192572D01*
X153926813Y-140192572D02*
X154022051Y-140240191D01*
X154022051Y-140240191D02*
X154403003Y-140240191D01*
X152831575Y-140621143D02*
X152879194Y-140668763D01*
X152879194Y-140668763D02*
X153022051Y-140716382D01*
X153022051Y-140716382D02*
X153117289Y-140716382D01*
X153117289Y-140716382D02*
X153260146Y-140668763D01*
X153260146Y-140668763D02*
X153355384Y-140573524D01*
X153355384Y-140573524D02*
X153403003Y-140478286D01*
X153403003Y-140478286D02*
X153450622Y-140287810D01*
X153450622Y-140287810D02*
X153450622Y-140144953D01*
X153450622Y-140144953D02*
X153403003Y-139954477D01*
X153403003Y-139954477D02*
X153355384Y-139859239D01*
X153355384Y-139859239D02*
X153260146Y-139764001D01*
X153260146Y-139764001D02*
X153117289Y-139716382D01*
X153117289Y-139716382D02*
X153022051Y-139716382D01*
X153022051Y-139716382D02*
X152879194Y-139764001D01*
X152879194Y-139764001D02*
X152831575Y-139811620D01*
X152069670Y-140192572D02*
X151926813Y-140240191D01*
X151926813Y-140240191D02*
X151879194Y-140287810D01*
X151879194Y-140287810D02*
X151831575Y-140383048D01*
X151831575Y-140383048D02*
X151831575Y-140525905D01*
X151831575Y-140525905D02*
X151879194Y-140621143D01*
X151879194Y-140621143D02*
X151926813Y-140668763D01*
X151926813Y-140668763D02*
X152022051Y-140716382D01*
X152022051Y-140716382D02*
X152403003Y-140716382D01*
X152403003Y-140716382D02*
X152403003Y-139716382D01*
X152403003Y-139716382D02*
X152069670Y-139716382D01*
X152069670Y-139716382D02*
X151974432Y-139764001D01*
X151974432Y-139764001D02*
X151926813Y-139811620D01*
X151926813Y-139811620D02*
X151879194Y-139906858D01*
X151879194Y-139906858D02*
X151879194Y-140002096D01*
X151879194Y-140002096D02*
X151926813Y-140097334D01*
X151926813Y-140097334D02*
X151974432Y-140144953D01*
X151974432Y-140144953D02*
X152069670Y-140192572D01*
X152069670Y-140192572D02*
X152403003Y-140192572D01*
X150641098Y-140716382D02*
X150641098Y-139716382D01*
X150641098Y-140097334D02*
X150545860Y-140049715D01*
X150545860Y-140049715D02*
X150355384Y-140049715D01*
X150355384Y-140049715D02*
X150260146Y-140097334D01*
X150260146Y-140097334D02*
X150212527Y-140144953D01*
X150212527Y-140144953D02*
X150164908Y-140240191D01*
X150164908Y-140240191D02*
X150164908Y-140525905D01*
X150164908Y-140525905D02*
X150212527Y-140621143D01*
X150212527Y-140621143D02*
X150260146Y-140668763D01*
X150260146Y-140668763D02*
X150355384Y-140716382D01*
X150355384Y-140716382D02*
X150545860Y-140716382D01*
X150545860Y-140716382D02*
X150641098Y-140668763D01*
X149831574Y-140049715D02*
X149593479Y-140716382D01*
X149355384Y-140049715D02*
X149593479Y-140716382D01*
X149593479Y-140716382D02*
X149688717Y-140954477D01*
X149688717Y-140954477D02*
X149736336Y-141002096D01*
X149736336Y-141002096D02*
X149831574Y-141049715D01*
X155307764Y-142326326D02*
X155307764Y-141326326D01*
X155307764Y-141326326D02*
X154974431Y-142040611D01*
X154974431Y-142040611D02*
X154641098Y-141326326D01*
X154641098Y-141326326D02*
X154641098Y-142326326D01*
X153783955Y-142278707D02*
X153879193Y-142326326D01*
X153879193Y-142326326D02*
X154069669Y-142326326D01*
X154069669Y-142326326D02*
X154164907Y-142278707D01*
X154164907Y-142278707D02*
X154212526Y-142183468D01*
X154212526Y-142183468D02*
X154212526Y-141802516D01*
X154212526Y-141802516D02*
X154164907Y-141707278D01*
X154164907Y-141707278D02*
X154069669Y-141659659D01*
X154069669Y-141659659D02*
X153879193Y-141659659D01*
X153879193Y-141659659D02*
X153783955Y-141707278D01*
X153783955Y-141707278D02*
X153736336Y-141802516D01*
X153736336Y-141802516D02*
X153736336Y-141897754D01*
X153736336Y-141897754D02*
X154212526Y-141992992D01*
X153307764Y-141659659D02*
X153307764Y-142516802D01*
X153307764Y-142516802D02*
X153355383Y-142612040D01*
X153355383Y-142612040D02*
X153450621Y-142659659D01*
X153450621Y-142659659D02*
X153498240Y-142659659D01*
X153307764Y-141326326D02*
X153355383Y-141373945D01*
X153355383Y-141373945D02*
X153307764Y-141421564D01*
X153307764Y-141421564D02*
X153260145Y-141373945D01*
X153260145Y-141373945D02*
X153307764Y-141326326D01*
X153307764Y-141326326D02*
X153307764Y-141421564D01*
X152831574Y-141659659D02*
X152831574Y-142659659D01*
X152831574Y-141707278D02*
X152736336Y-141659659D01*
X152736336Y-141659659D02*
X152545860Y-141659659D01*
X152545860Y-141659659D02*
X152450622Y-141707278D01*
X152450622Y-141707278D02*
X152403003Y-141754897D01*
X152403003Y-141754897D02*
X152355384Y-141850135D01*
X152355384Y-141850135D02*
X152355384Y-142135849D01*
X152355384Y-142135849D02*
X152403003Y-142231087D01*
X152403003Y-142231087D02*
X152450622Y-142278707D01*
X152450622Y-142278707D02*
X152545860Y-142326326D01*
X152545860Y-142326326D02*
X152736336Y-142326326D01*
X152736336Y-142326326D02*
X152831574Y-142278707D01*
X151545860Y-142278707D02*
X151641098Y-142326326D01*
X151641098Y-142326326D02*
X151831574Y-142326326D01*
X151831574Y-142326326D02*
X151926812Y-142278707D01*
X151926812Y-142278707D02*
X151974431Y-142183468D01*
X151974431Y-142183468D02*
X151974431Y-141802516D01*
X151974431Y-141802516D02*
X151926812Y-141707278D01*
X151926812Y-141707278D02*
X151831574Y-141659659D01*
X151831574Y-141659659D02*
X151641098Y-141659659D01*
X151641098Y-141659659D02*
X151545860Y-141707278D01*
X151545860Y-141707278D02*
X151498241Y-141802516D01*
X151498241Y-141802516D02*
X151498241Y-141897754D01*
X151498241Y-141897754D02*
X151974431Y-141992992D01*
X151069669Y-142326326D02*
X151069669Y-141326326D01*
X150974431Y-141945373D02*
X150688717Y-142326326D01*
X150688717Y-141659659D02*
X151069669Y-142040611D01*
X149498240Y-142231087D02*
X149450621Y-142278707D01*
X149450621Y-142278707D02*
X149498240Y-142326326D01*
X149498240Y-142326326D02*
X149545859Y-142278707D01*
X149545859Y-142278707D02*
X149498240Y-142231087D01*
X149498240Y-142231087D02*
X149498240Y-142326326D01*
X149498240Y-141707278D02*
X149450621Y-141754897D01*
X149450621Y-141754897D02*
X149498240Y-141802516D01*
X149498240Y-141802516D02*
X149545859Y-141754897D01*
X149545859Y-141754897D02*
X149498240Y-141707278D01*
X149498240Y-141707278D02*
X149498240Y-141802516D01*
X149117288Y-141326326D02*
X148498241Y-141326326D01*
X148498241Y-141326326D02*
X148831574Y-141707278D01*
X148831574Y-141707278D02*
X148688717Y-141707278D01*
X148688717Y-141707278D02*
X148593479Y-141754897D01*
X148593479Y-141754897D02*
X148545860Y-141802516D01*
X148545860Y-141802516D02*
X148498241Y-141897754D01*
X148498241Y-141897754D02*
X148498241Y-142135849D01*
X148498241Y-142135849D02*
X148545860Y-142231087D01*
X148545860Y-142231087D02*
X148593479Y-142278707D01*
X148593479Y-142278707D02*
X148688717Y-142326326D01*
X148688717Y-142326326D02*
X148974431Y-142326326D01*
X148974431Y-142326326D02*
X149069669Y-142278707D01*
X149069669Y-142278707D02*
X149117288Y-142231087D01*
X136918416Y-73076175D02*
X137255133Y-72739458D01*
X136312324Y-73210862D02*
X136918416Y-73076175D01*
X136918416Y-73076175D02*
X136783729Y-73682267D01*
X137827553Y-73311878D02*
X137726538Y-73278206D01*
X137726538Y-73278206D02*
X137659194Y-73278206D01*
X137659194Y-73278206D02*
X137558179Y-73311878D01*
X137558179Y-73311878D02*
X137356149Y-73513908D01*
X137356149Y-73513908D02*
X137322477Y-73614924D01*
X137322477Y-73614924D02*
X137322477Y-73682267D01*
X137322477Y-73682267D02*
X137356149Y-73783282D01*
X137356149Y-73783282D02*
X137457164Y-73884298D01*
X137457164Y-73884298D02*
X137558179Y-73917969D01*
X137558179Y-73917969D02*
X137625523Y-73917969D01*
X137625523Y-73917969D02*
X137726538Y-73884298D01*
X137726538Y-73884298D02*
X137928568Y-73682267D01*
X137928568Y-73682267D02*
X137962240Y-73581252D01*
X137962240Y-73581252D02*
X137962240Y-73513908D01*
X137962240Y-73513908D02*
X137928568Y-73412893D01*
X137928568Y-73412893D02*
X137827553Y-73311878D01*
X138197942Y-74625076D02*
X138669347Y-74153672D01*
X137894897Y-74322030D02*
X138265286Y-73951641D01*
X138265286Y-73951641D02*
X138366301Y-73917969D01*
X138366301Y-73917969D02*
X138467316Y-73951641D01*
X138467316Y-73951641D02*
X138568332Y-74052656D01*
X138568332Y-74052656D02*
X138602003Y-74153672D01*
X138602003Y-74153672D02*
X138602003Y-74221015D01*
X139645828Y-75130153D02*
X139544813Y-75096481D01*
X139544813Y-75096481D02*
X139443797Y-75130153D01*
X139443797Y-75130153D02*
X138837706Y-75736244D01*
X139915202Y-75399527D02*
X139443798Y-75870932D01*
X139208096Y-76106634D02*
X139208096Y-76039290D01*
X139208096Y-76039290D02*
X139275439Y-76039290D01*
X139275439Y-76039290D02*
X139275439Y-76106634D01*
X139275439Y-76106634D02*
X139208096Y-76106634D01*
X139208096Y-76106634D02*
X139275439Y-76039290D01*
X140251920Y-75736244D02*
X139544813Y-76443351D01*
X140049889Y-76072962D02*
X140521294Y-76005618D01*
X140049889Y-76477023D02*
X140049889Y-75938275D01*
X141060042Y-76611710D02*
X141026370Y-76510695D01*
X141026370Y-76510695D02*
X140891683Y-76376008D01*
X140891683Y-76376008D02*
X140790668Y-76342336D01*
X140790668Y-76342336D02*
X140689652Y-76376008D01*
X140689652Y-76376008D02*
X140420278Y-76645382D01*
X140420278Y-76645382D02*
X140386607Y-76746397D01*
X140386607Y-76746397D02*
X140420278Y-76847412D01*
X140420278Y-76847412D02*
X140554965Y-76982099D01*
X140554965Y-76982099D02*
X140655981Y-77015771D01*
X140655981Y-77015771D02*
X140756996Y-76982099D01*
X140756996Y-76982099D02*
X140824339Y-76914756D01*
X140824339Y-76914756D02*
X140554965Y-76510695D01*
X142272225Y-77756550D02*
X141565118Y-78463657D01*
X142238553Y-77790221D02*
X142204882Y-77689206D01*
X142204882Y-77689206D02*
X142070195Y-77554519D01*
X142070195Y-77554519D02*
X141969179Y-77520847D01*
X141969179Y-77520847D02*
X141901836Y-77520847D01*
X141901836Y-77520847D02*
X141800821Y-77554519D01*
X141800821Y-77554519D02*
X141598790Y-77756550D01*
X141598790Y-77756550D02*
X141565118Y-77857565D01*
X141565118Y-77857565D02*
X141565118Y-77924908D01*
X141565118Y-77924908D02*
X141598790Y-78025924D01*
X141598790Y-78025924D02*
X141733477Y-78160611D01*
X141733477Y-78160611D02*
X141834492Y-78194283D01*
X142608943Y-78093267D02*
X142137538Y-78564672D01*
X142272225Y-78429985D02*
X142238553Y-78531000D01*
X142238553Y-78531000D02*
X142238553Y-78598344D01*
X142238553Y-78598344D02*
X142272225Y-78699359D01*
X142272225Y-78699359D02*
X142339569Y-78766702D01*
X143046676Y-78531000D02*
X142575271Y-79002405D01*
X142339569Y-79238107D02*
X142339569Y-79170764D01*
X142339569Y-79170764D02*
X142406912Y-79170764D01*
X142406912Y-79170764D02*
X142406912Y-79238107D01*
X142406912Y-79238107D02*
X142339569Y-79238107D01*
X142339569Y-79238107D02*
X142406912Y-79170764D01*
X142911988Y-79339122D02*
X143383393Y-78867718D01*
X142979332Y-79271779D02*
X142979332Y-79339122D01*
X142979332Y-79339122D02*
X143013004Y-79440137D01*
X143013004Y-79440137D02*
X143114019Y-79541153D01*
X143114019Y-79541153D02*
X143215034Y-79574824D01*
X143215034Y-79574824D02*
X143316049Y-79541153D01*
X143316049Y-79541153D02*
X143686439Y-79170763D01*
X144023156Y-79507481D02*
X143316049Y-80214588D01*
X143821126Y-79844198D02*
X144292530Y-79776855D01*
X143821126Y-80248259D02*
X143821126Y-79709511D01*
X144595576Y-80079901D02*
X144124172Y-80551305D01*
X143888469Y-80787008D02*
X143888469Y-80719664D01*
X143888469Y-80719664D02*
X143955813Y-80719664D01*
X143955813Y-80719664D02*
X143955813Y-80787008D01*
X143955813Y-80787008D02*
X143888469Y-80787008D01*
X143888469Y-80787008D02*
X143955813Y-80719664D01*
X144460889Y-80888022D02*
X144932293Y-80416618D01*
X144528232Y-80820679D02*
X144528232Y-80888022D01*
X144528232Y-80888022D02*
X144561904Y-80989038D01*
X144561904Y-80989038D02*
X144662919Y-81090053D01*
X144662919Y-81090053D02*
X144763934Y-81123725D01*
X144763934Y-81123725D02*
X144864950Y-81090053D01*
X144864950Y-81090053D02*
X145235339Y-80719664D01*
X145403698Y-81830832D02*
X145976118Y-81258412D01*
X145976118Y-81258412D02*
X146009789Y-81157397D01*
X146009789Y-81157397D02*
X146009789Y-81090053D01*
X146009789Y-81090053D02*
X145976118Y-80989038D01*
X145976118Y-80989038D02*
X145875102Y-80888023D01*
X145875102Y-80888023D02*
X145774087Y-80854351D01*
X145841431Y-81393099D02*
X145807759Y-81292084D01*
X145807759Y-81292084D02*
X145673072Y-81157397D01*
X145673072Y-81157397D02*
X145572057Y-81123725D01*
X145572057Y-81123725D02*
X145504713Y-81123725D01*
X145504713Y-81123725D02*
X145403698Y-81157397D01*
X145403698Y-81157397D02*
X145201667Y-81359427D01*
X145201667Y-81359427D02*
X145167996Y-81460442D01*
X145167996Y-81460442D02*
X145167996Y-81527786D01*
X145167996Y-81527786D02*
X145201667Y-81628801D01*
X145201667Y-81628801D02*
X145336354Y-81763488D01*
X145336354Y-81763488D02*
X145437370Y-81797160D01*
X146279164Y-82706297D02*
X146885255Y-82100206D01*
X146885255Y-82100206D02*
X146918927Y-81999191D01*
X146918927Y-81999191D02*
X146885255Y-81898175D01*
X146885255Y-81898175D02*
X146851583Y-81864504D01*
X146043461Y-82942000D02*
X146043461Y-82874656D01*
X146043461Y-82874656D02*
X146110805Y-82874656D01*
X146110805Y-82874656D02*
X146110805Y-82942000D01*
X146110805Y-82942000D02*
X146043461Y-82942000D01*
X146043461Y-82942000D02*
X146110805Y-82874656D01*
X146918927Y-83346060D02*
X147390331Y-82874656D01*
X146615881Y-83043015D02*
X146986270Y-82672625D01*
X146986270Y-82672625D02*
X147087285Y-82638954D01*
X147087285Y-82638954D02*
X147188301Y-82672625D01*
X147188301Y-82672625D02*
X147289316Y-82773641D01*
X147289316Y-82773641D02*
X147322988Y-82874656D01*
X147322988Y-82874656D02*
X147322988Y-82941999D01*
X147727049Y-83211373D02*
X147255644Y-83682778D01*
X147019942Y-83918480D02*
X147019942Y-83851137D01*
X147019942Y-83851137D02*
X147087285Y-83851137D01*
X147087285Y-83851137D02*
X147087285Y-83918480D01*
X147087285Y-83918480D02*
X147019942Y-83918480D01*
X147019942Y-83918480D02*
X147087285Y-83851137D01*
X148333140Y-83884808D02*
X148299468Y-83783793D01*
X148299468Y-83783793D02*
X148164781Y-83649106D01*
X148164781Y-83649106D02*
X148063766Y-83615434D01*
X148063766Y-83615434D02*
X147996422Y-83615434D01*
X147996422Y-83615434D02*
X147895407Y-83649106D01*
X147895407Y-83649106D02*
X147693377Y-83851136D01*
X147693377Y-83851136D02*
X147659705Y-83952152D01*
X147659705Y-83952152D02*
X147659705Y-84019495D01*
X147659705Y-84019495D02*
X147693377Y-84120510D01*
X147693377Y-84120510D02*
X147828064Y-84255197D01*
X147828064Y-84255197D02*
X147929079Y-84288869D01*
X148905560Y-84457228D02*
X148871888Y-84356213D01*
X148871888Y-84356213D02*
X148737201Y-84221526D01*
X148737201Y-84221526D02*
X148636186Y-84187854D01*
X148636186Y-84187854D02*
X148535170Y-84221526D01*
X148535170Y-84221526D02*
X148265796Y-84490900D01*
X148265796Y-84490900D02*
X148232125Y-84591915D01*
X148232125Y-84591915D02*
X148265796Y-84692930D01*
X148265796Y-84692930D02*
X148400483Y-84827617D01*
X148400483Y-84827617D02*
X148501499Y-84861289D01*
X148501499Y-84861289D02*
X148602514Y-84827617D01*
X148602514Y-84827617D02*
X148669857Y-84760274D01*
X148669857Y-84760274D02*
X148400483Y-84356213D01*
X149275949Y-84827617D02*
X149309621Y-84793946D01*
X149309621Y-84793946D02*
X149343293Y-84692930D01*
X149343293Y-84692930D02*
X149343293Y-84625587D01*
X141996412Y-75203933D02*
X141289305Y-75911040D01*
X141962740Y-75237605D02*
X141929069Y-75136589D01*
X141929069Y-75136589D02*
X141794382Y-75001902D01*
X141794382Y-75001902D02*
X141693366Y-74968230D01*
X141693366Y-74968230D02*
X141626023Y-74968230D01*
X141626023Y-74968230D02*
X141525008Y-75001902D01*
X141525008Y-75001902D02*
X141322977Y-75203933D01*
X141322977Y-75203933D02*
X141289305Y-75304948D01*
X141289305Y-75304948D02*
X141289305Y-75372292D01*
X141289305Y-75372292D02*
X141322977Y-75473307D01*
X141322977Y-75473307D02*
X141457664Y-75607994D01*
X141457664Y-75607994D02*
X141558679Y-75641666D01*
X142434145Y-75641666D02*
X142333130Y-75607994D01*
X142333130Y-75607994D02*
X142265786Y-75607994D01*
X142265786Y-75607994D02*
X142164771Y-75641666D01*
X142164771Y-75641666D02*
X141962740Y-75843696D01*
X141962740Y-75843696D02*
X141929069Y-75944711D01*
X141929069Y-75944711D02*
X141929069Y-76012055D01*
X141929069Y-76012055D02*
X141962740Y-76113070D01*
X141962740Y-76113070D02*
X142063756Y-76214085D01*
X142063756Y-76214085D02*
X142164771Y-76247757D01*
X142164771Y-76247757D02*
X142232114Y-76247757D01*
X142232114Y-76247757D02*
X142333130Y-76214085D01*
X142333130Y-76214085D02*
X142535160Y-76012055D01*
X142535160Y-76012055D02*
X142568832Y-75911040D01*
X142568832Y-75911040D02*
X142568832Y-75843696D01*
X142568832Y-75843696D02*
X142535160Y-75742681D01*
X142535160Y-75742681D02*
X142434145Y-75641666D01*
X142501488Y-76651818D02*
X142972893Y-76180414D01*
X142568832Y-76584475D02*
X142568832Y-76651818D01*
X142568832Y-76651818D02*
X142602504Y-76752833D01*
X142602504Y-76752833D02*
X142703519Y-76853849D01*
X142703519Y-76853849D02*
X142804534Y-76887520D01*
X142804534Y-76887520D02*
X142905549Y-76853849D01*
X142905549Y-76853849D02*
X143275939Y-76483459D01*
X142939221Y-77560956D02*
X143006565Y-77358925D01*
X143376954Y-77527283D02*
X143646328Y-77796657D01*
X143242267Y-77864001D02*
X143848358Y-77257909D01*
X143848358Y-77257909D02*
X143949373Y-77224238D01*
X143949373Y-77224238D02*
X144050389Y-77257909D01*
X144050389Y-77257909D02*
X144117732Y-77325253D01*
X144353435Y-78503765D02*
X144993198Y-78200719D01*
X144690153Y-78840482D02*
X144993198Y-78200719D01*
X144993198Y-78200719D02*
X145094214Y-77965017D01*
X145094214Y-77965017D02*
X145094214Y-77897673D01*
X145094214Y-77897673D02*
X145060542Y-77796658D01*
X145531946Y-78739467D02*
X145430931Y-78705795D01*
X145430931Y-78705795D02*
X145363588Y-78705795D01*
X145363588Y-78705795D02*
X145262572Y-78739467D01*
X145262572Y-78739467D02*
X145060542Y-78941498D01*
X145060542Y-78941498D02*
X145026870Y-79042513D01*
X145026870Y-79042513D02*
X145026870Y-79109856D01*
X145026870Y-79109856D02*
X145060542Y-79210872D01*
X145060542Y-79210872D02*
X145161557Y-79311887D01*
X145161557Y-79311887D02*
X145262572Y-79345559D01*
X145262572Y-79345559D02*
X145329916Y-79345559D01*
X145329916Y-79345559D02*
X145430931Y-79311887D01*
X145430931Y-79311887D02*
X145632962Y-79109856D01*
X145632962Y-79109856D02*
X145666633Y-79008841D01*
X145666633Y-79008841D02*
X145666633Y-78941498D01*
X145666633Y-78941498D02*
X145632962Y-78840482D01*
X145632962Y-78840482D02*
X145531946Y-78739467D01*
X145902336Y-80052666D02*
X146373740Y-79581261D01*
X145599290Y-79749620D02*
X145969679Y-79379231D01*
X145969679Y-79379231D02*
X146070695Y-79345559D01*
X146070695Y-79345559D02*
X146171710Y-79379231D01*
X146171710Y-79379231D02*
X146272725Y-79480246D01*
X146272725Y-79480246D02*
X146306397Y-79581261D01*
X146306397Y-79581261D02*
X146306397Y-79648605D01*
X146744130Y-80086337D02*
X146811473Y-80086337D01*
X146811473Y-80086337D02*
X146811473Y-80018994D01*
X146811473Y-80018994D02*
X146744130Y-80018994D01*
X146744130Y-80018994D02*
X146744130Y-80086337D01*
X146744130Y-80086337D02*
X146811473Y-80018994D01*
X146003351Y-80557742D02*
X146037023Y-80658757D01*
X146037023Y-80658757D02*
X146205382Y-80827116D01*
X146205382Y-80827116D02*
X146306397Y-80860788D01*
X146306397Y-80860788D02*
X146407412Y-80827116D01*
X146407412Y-80827116D02*
X146474756Y-80759772D01*
X146474756Y-80759772D02*
X146508427Y-80658757D01*
X146508427Y-80658757D02*
X146508427Y-80591414D01*
X146508427Y-80591414D02*
X146474756Y-80490398D01*
X146474756Y-80490398D02*
X146474756Y-80423055D01*
X146474756Y-80423055D02*
X146508427Y-80322040D01*
X146508427Y-80322040D02*
X146542099Y-80288368D01*
X156921173Y-75764821D02*
X157206887Y-75479107D01*
X157206887Y-75479107D02*
X156921173Y-75193392D01*
X156921173Y-75193392D02*
X156635459Y-75479107D01*
X156635459Y-75479107D02*
X156921173Y-75764821D01*
X156921173Y-75764821D02*
X156921173Y-75193392D01*
X156921173Y-78907678D02*
X157206887Y-78621964D01*
X157206887Y-78621964D02*
X156921173Y-78336249D01*
X156921173Y-78336249D02*
X156635459Y-78621964D01*
X156635459Y-78621964D02*
X156921173Y-78907678D01*
X156921173Y-78907678D02*
X156921173Y-78336249D01*
X159206887Y-81193392D02*
X162921173Y-81193392D01*
X162921173Y-81193392D02*
X160921173Y-78907678D01*
X160921173Y-78907678D02*
X161778316Y-78907678D01*
X161778316Y-78907678D02*
X162349745Y-78621964D01*
X162349745Y-78621964D02*
X162635459Y-78336249D01*
X162635459Y-78336249D02*
X162921173Y-77764821D01*
X162921173Y-77764821D02*
X162921173Y-76336249D01*
X162921173Y-76336249D02*
X162635459Y-75764821D01*
X162635459Y-75764821D02*
X162349745Y-75479107D01*
X162349745Y-75479107D02*
X161778316Y-75193392D01*
X161778316Y-75193392D02*
X160064030Y-75193392D01*
X160064030Y-75193392D02*
X159492602Y-75479107D01*
X159492602Y-75479107D02*
X159206887Y-75764821D01*
X136652531Y-120928571D02*
X137366816Y-120928571D01*
X137366816Y-120928571D02*
X137509673Y-120880952D01*
X137509673Y-120880952D02*
X137604912Y-120785714D01*
X137604912Y-120785714D02*
X137652531Y-120642857D01*
X137652531Y-120642857D02*
X137652531Y-120547619D01*
X136652531Y-121404762D02*
X137462054Y-121404762D01*
X137462054Y-121404762D02*
X137557292Y-121452381D01*
X137557292Y-121452381D02*
X137604912Y-121500000D01*
X137604912Y-121500000D02*
X137652531Y-121595238D01*
X137652531Y-121595238D02*
X137652531Y-121785714D01*
X137652531Y-121785714D02*
X137604912Y-121880952D01*
X137604912Y-121880952D02*
X137557292Y-121928571D01*
X137557292Y-121928571D02*
X137462054Y-121976190D01*
X137462054Y-121976190D02*
X136652531Y-121976190D01*
X137652531Y-122452381D02*
X136652531Y-122452381D01*
X137557292Y-123499999D02*
X137604912Y-123452380D01*
X137604912Y-123452380D02*
X137652531Y-123309523D01*
X137652531Y-123309523D02*
X137652531Y-123214285D01*
X137652531Y-123214285D02*
X137604912Y-123071428D01*
X137604912Y-123071428D02*
X137509673Y-122976190D01*
X137509673Y-122976190D02*
X137414435Y-122928571D01*
X137414435Y-122928571D02*
X137223959Y-122880952D01*
X137223959Y-122880952D02*
X137081102Y-122880952D01*
X137081102Y-122880952D02*
X136890626Y-122928571D01*
X136890626Y-122928571D02*
X136795388Y-122976190D01*
X136795388Y-122976190D02*
X136700150Y-123071428D01*
X136700150Y-123071428D02*
X136652531Y-123214285D01*
X136652531Y-123214285D02*
X136652531Y-123309523D01*
X136652531Y-123309523D02*
X136700150Y-123452380D01*
X136700150Y-123452380D02*
X136747769Y-123499999D01*
X137128721Y-123928571D02*
X137128721Y-124261904D01*
X137652531Y-124404761D02*
X137652531Y-123928571D01*
X137652531Y-123928571D02*
X136652531Y-123928571D01*
X136652531Y-123928571D02*
X136652531Y-124404761D01*
X138310094Y-119547618D02*
X138262475Y-119452380D01*
X138262475Y-119452380D02*
X138262475Y-119309523D01*
X138262475Y-119309523D02*
X138310094Y-119166666D01*
X138310094Y-119166666D02*
X138405332Y-119071428D01*
X138405332Y-119071428D02*
X138500570Y-119023809D01*
X138500570Y-119023809D02*
X138691046Y-118976190D01*
X138691046Y-118976190D02*
X138833903Y-118976190D01*
X138833903Y-118976190D02*
X139024379Y-119023809D01*
X139024379Y-119023809D02*
X139119617Y-119071428D01*
X139119617Y-119071428D02*
X139214856Y-119166666D01*
X139214856Y-119166666D02*
X139262475Y-119309523D01*
X139262475Y-119309523D02*
X139262475Y-119404761D01*
X139262475Y-119404761D02*
X139214856Y-119547618D01*
X139214856Y-119547618D02*
X139167236Y-119595237D01*
X139167236Y-119595237D02*
X138833903Y-119595237D01*
X138833903Y-119595237D02*
X138833903Y-119404761D01*
X138976760Y-119976190D02*
X138976760Y-120452380D01*
X139262475Y-119880952D02*
X138262475Y-120214285D01*
X138262475Y-120214285D02*
X139262475Y-120547618D01*
X139262475Y-120880952D02*
X138262475Y-120880952D01*
X138262475Y-120880952D02*
X138976760Y-121214285D01*
X138976760Y-121214285D02*
X138262475Y-121547618D01*
X138262475Y-121547618D02*
X139262475Y-121547618D01*
X138738665Y-122023809D02*
X138738665Y-122357142D01*
X139262475Y-122499999D02*
X139262475Y-122023809D01*
X139262475Y-122023809D02*
X138262475Y-122023809D01*
X138262475Y-122023809D02*
X138262475Y-122499999D01*
X138262475Y-123976190D02*
X138976760Y-123976190D01*
X138976760Y-123976190D02*
X139119617Y-123928571D01*
X139119617Y-123928571D02*
X139214856Y-123833333D01*
X139214856Y-123833333D02*
X139262475Y-123690476D01*
X139262475Y-123690476D02*
X139262475Y-123595238D01*
X138976760Y-124404762D02*
X138976760Y-124880952D01*
X139262475Y-124309524D02*
X138262475Y-124642857D01*
X138262475Y-124642857D02*
X139262475Y-124976190D01*
X139262475Y-125309524D02*
X138262475Y-125309524D01*
X138262475Y-125309524D02*
X138976760Y-125642857D01*
X138976760Y-125642857D02*
X138262475Y-125976190D01*
X138262475Y-125976190D02*
X139262475Y-125976190D01*
X140824800Y-116976190D02*
X140872419Y-117119047D01*
X140872419Y-117119047D02*
X140872419Y-117357142D01*
X140872419Y-117357142D02*
X140824800Y-117452380D01*
X140824800Y-117452380D02*
X140777180Y-117499999D01*
X140777180Y-117499999D02*
X140681942Y-117547618D01*
X140681942Y-117547618D02*
X140586704Y-117547618D01*
X140586704Y-117547618D02*
X140491466Y-117499999D01*
X140491466Y-117499999D02*
X140443847Y-117452380D01*
X140443847Y-117452380D02*
X140396228Y-117357142D01*
X140396228Y-117357142D02*
X140348609Y-117166666D01*
X140348609Y-117166666D02*
X140300990Y-117071428D01*
X140300990Y-117071428D02*
X140253371Y-117023809D01*
X140253371Y-117023809D02*
X140158133Y-116976190D01*
X140158133Y-116976190D02*
X140062895Y-116976190D01*
X140062895Y-116976190D02*
X139967657Y-117023809D01*
X139967657Y-117023809D02*
X139920038Y-117071428D01*
X139920038Y-117071428D02*
X139872419Y-117166666D01*
X139872419Y-117166666D02*
X139872419Y-117404761D01*
X139872419Y-117404761D02*
X139920038Y-117547618D01*
X140872419Y-117976190D02*
X139872419Y-117976190D01*
X140872419Y-118404761D02*
X140348609Y-118404761D01*
X140348609Y-118404761D02*
X140253371Y-118357142D01*
X140253371Y-118357142D02*
X140205752Y-118261904D01*
X140205752Y-118261904D02*
X140205752Y-118119047D01*
X140205752Y-118119047D02*
X140253371Y-118023809D01*
X140253371Y-118023809D02*
X140300990Y-117976190D01*
X140872419Y-119309523D02*
X140348609Y-119309523D01*
X140348609Y-119309523D02*
X140253371Y-119261904D01*
X140253371Y-119261904D02*
X140205752Y-119166666D01*
X140205752Y-119166666D02*
X140205752Y-118976190D01*
X140205752Y-118976190D02*
X140253371Y-118880952D01*
X140824800Y-119309523D02*
X140872419Y-119214285D01*
X140872419Y-119214285D02*
X140872419Y-118976190D01*
X140872419Y-118976190D02*
X140824800Y-118880952D01*
X140824800Y-118880952D02*
X140729561Y-118833333D01*
X140729561Y-118833333D02*
X140634323Y-118833333D01*
X140634323Y-118833333D02*
X140539085Y-118880952D01*
X140539085Y-118880952D02*
X140491466Y-118976190D01*
X140491466Y-118976190D02*
X140491466Y-119214285D01*
X140491466Y-119214285D02*
X140443847Y-119309523D01*
X140205752Y-119785714D02*
X140872419Y-119785714D01*
X140300990Y-119785714D02*
X140253371Y-119833333D01*
X140253371Y-119833333D02*
X140205752Y-119928571D01*
X140205752Y-119928571D02*
X140205752Y-120071428D01*
X140205752Y-120071428D02*
X140253371Y-120166666D01*
X140253371Y-120166666D02*
X140348609Y-120214285D01*
X140348609Y-120214285D02*
X140872419Y-120214285D01*
X140205752Y-121119047D02*
X141015276Y-121119047D01*
X141015276Y-121119047D02*
X141110514Y-121071428D01*
X141110514Y-121071428D02*
X141158133Y-121023809D01*
X141158133Y-121023809D02*
X141205752Y-120928571D01*
X141205752Y-120928571D02*
X141205752Y-120785714D01*
X141205752Y-120785714D02*
X141158133Y-120690476D01*
X140824800Y-121119047D02*
X140872419Y-121023809D01*
X140872419Y-121023809D02*
X140872419Y-120833333D01*
X140872419Y-120833333D02*
X140824800Y-120738095D01*
X140824800Y-120738095D02*
X140777180Y-120690476D01*
X140777180Y-120690476D02*
X140681942Y-120642857D01*
X140681942Y-120642857D02*
X140396228Y-120642857D01*
X140396228Y-120642857D02*
X140300990Y-120690476D01*
X140300990Y-120690476D02*
X140253371Y-120738095D01*
X140253371Y-120738095D02*
X140205752Y-120833333D01*
X140205752Y-120833333D02*
X140205752Y-121023809D01*
X140205752Y-121023809D02*
X140253371Y-121119047D01*
X140872419Y-121595238D02*
X139872419Y-121595238D01*
X140872419Y-122023809D02*
X140348609Y-122023809D01*
X140348609Y-122023809D02*
X140253371Y-121976190D01*
X140253371Y-121976190D02*
X140205752Y-121880952D01*
X140205752Y-121880952D02*
X140205752Y-121738095D01*
X140205752Y-121738095D02*
X140253371Y-121642857D01*
X140253371Y-121642857D02*
X140300990Y-121595238D01*
X140872419Y-122928571D02*
X140348609Y-122928571D01*
X140348609Y-122928571D02*
X140253371Y-122880952D01*
X140253371Y-122880952D02*
X140205752Y-122785714D01*
X140205752Y-122785714D02*
X140205752Y-122595238D01*
X140205752Y-122595238D02*
X140253371Y-122500000D01*
X140824800Y-122928571D02*
X140872419Y-122833333D01*
X140872419Y-122833333D02*
X140872419Y-122595238D01*
X140872419Y-122595238D02*
X140824800Y-122500000D01*
X140824800Y-122500000D02*
X140729561Y-122452381D01*
X140729561Y-122452381D02*
X140634323Y-122452381D01*
X140634323Y-122452381D02*
X140539085Y-122500000D01*
X140539085Y-122500000D02*
X140491466Y-122595238D01*
X140491466Y-122595238D02*
X140491466Y-122833333D01*
X140491466Y-122833333D02*
X140443847Y-122928571D01*
X140872419Y-123404762D02*
X140205752Y-123404762D01*
X139872419Y-123404762D02*
X139920038Y-123357143D01*
X139920038Y-123357143D02*
X139967657Y-123404762D01*
X139967657Y-123404762D02*
X139920038Y-123452381D01*
X139920038Y-123452381D02*
X139872419Y-123404762D01*
X139872419Y-123404762D02*
X139967657Y-123404762D01*
X139967657Y-124595238D02*
X139920038Y-124642857D01*
X139920038Y-124642857D02*
X139872419Y-124738095D01*
X139872419Y-124738095D02*
X139872419Y-124976190D01*
X139872419Y-124976190D02*
X139920038Y-125071428D01*
X139920038Y-125071428D02*
X139967657Y-125119047D01*
X139967657Y-125119047D02*
X140062895Y-125166666D01*
X140062895Y-125166666D02*
X140158133Y-125166666D01*
X140158133Y-125166666D02*
X140300990Y-125119047D01*
X140300990Y-125119047D02*
X140872419Y-124547619D01*
X140872419Y-124547619D02*
X140872419Y-125166666D01*
X139872419Y-125785714D02*
X139872419Y-125880952D01*
X139872419Y-125880952D02*
X139920038Y-125976190D01*
X139920038Y-125976190D02*
X139967657Y-126023809D01*
X139967657Y-126023809D02*
X140062895Y-126071428D01*
X140062895Y-126071428D02*
X140253371Y-126119047D01*
X140253371Y-126119047D02*
X140491466Y-126119047D01*
X140491466Y-126119047D02*
X140681942Y-126071428D01*
X140681942Y-126071428D02*
X140777180Y-126023809D01*
X140777180Y-126023809D02*
X140824800Y-125976190D01*
X140824800Y-125976190D02*
X140872419Y-125880952D01*
X140872419Y-125880952D02*
X140872419Y-125785714D01*
X140872419Y-125785714D02*
X140824800Y-125690476D01*
X140824800Y-125690476D02*
X140777180Y-125642857D01*
X140777180Y-125642857D02*
X140681942Y-125595238D01*
X140681942Y-125595238D02*
X140491466Y-125547619D01*
X140491466Y-125547619D02*
X140253371Y-125547619D01*
X140253371Y-125547619D02*
X140062895Y-125595238D01*
X140062895Y-125595238D02*
X139967657Y-125642857D01*
X139967657Y-125642857D02*
X139920038Y-125690476D01*
X139920038Y-125690476D02*
X139872419Y-125785714D01*
X139967657Y-126500000D02*
X139920038Y-126547619D01*
X139920038Y-126547619D02*
X139872419Y-126642857D01*
X139872419Y-126642857D02*
X139872419Y-126880952D01*
X139872419Y-126880952D02*
X139920038Y-126976190D01*
X139920038Y-126976190D02*
X139967657Y-127023809D01*
X139967657Y-127023809D02*
X140062895Y-127071428D01*
X140062895Y-127071428D02*
X140158133Y-127071428D01*
X140158133Y-127071428D02*
X140300990Y-127023809D01*
X140300990Y-127023809D02*
X140872419Y-126452381D01*
X140872419Y-126452381D02*
X140872419Y-127071428D01*
X139872419Y-127976190D02*
X139872419Y-127500000D01*
X139872419Y-127500000D02*
X140348609Y-127452381D01*
X140348609Y-127452381D02*
X140300990Y-127500000D01*
X140300990Y-127500000D02*
X140253371Y-127595238D01*
X140253371Y-127595238D02*
X140253371Y-127833333D01*
X140253371Y-127833333D02*
X140300990Y-127928571D01*
X140300990Y-127928571D02*
X140348609Y-127976190D01*
X140348609Y-127976190D02*
X140443847Y-128023809D01*
X140443847Y-128023809D02*
X140681942Y-128023809D01*
X140681942Y-128023809D02*
X140777180Y-127976190D01*
X140777180Y-127976190D02*
X140824800Y-127928571D01*
X140824800Y-127928571D02*
X140872419Y-127833333D01*
X140872419Y-127833333D02*
X140872419Y-127595238D01*
X140872419Y-127595238D02*
X140824800Y-127500000D01*
X140824800Y-127500000D02*
X140777180Y-127452381D01*
D11*
X151036870Y-122628668D02*
X150989251Y-122533430D01*
X150989251Y-122533430D02*
X150894013Y-122438192D01*
X150894013Y-122438192D02*
X150751155Y-122295335D01*
X150751155Y-122295335D02*
X150703536Y-122200097D01*
X150703536Y-122200097D02*
X150703536Y-122104859D01*
X150941632Y-122152478D02*
X150894013Y-122057240D01*
X150894013Y-122057240D02*
X150798774Y-121962002D01*
X150798774Y-121962002D02*
X150608298Y-121914383D01*
X150608298Y-121914383D02*
X150274965Y-121914383D01*
X150274965Y-121914383D02*
X150084489Y-121962002D01*
X150084489Y-121962002D02*
X149989251Y-122057240D01*
X149989251Y-122057240D02*
X149941632Y-122152478D01*
X149941632Y-122152478D02*
X149941632Y-122342954D01*
X149941632Y-122342954D02*
X149989251Y-122438192D01*
X149989251Y-122438192D02*
X150084489Y-122533430D01*
X150084489Y-122533430D02*
X150274965Y-122581049D01*
X150274965Y-122581049D02*
X150608298Y-122581049D01*
X150608298Y-122581049D02*
X150798774Y-122533430D01*
X150798774Y-122533430D02*
X150894013Y-122438192D01*
X150894013Y-122438192D02*
X150941632Y-122342954D01*
X150941632Y-122342954D02*
X150941632Y-122152478D01*
X150941632Y-123533430D02*
X150941632Y-122962002D01*
X150941632Y-123247716D02*
X149941632Y-123247716D01*
X149941632Y-123247716D02*
X150084489Y-123152478D01*
X150084489Y-123152478D02*
X150179727Y-123057240D01*
X150179727Y-123057240D02*
X150227346Y-122962002D01*
X143254013Y-132930574D02*
X143301632Y-133073431D01*
X143301632Y-133073431D02*
X143301632Y-133311526D01*
X143301632Y-133311526D02*
X143254013Y-133406764D01*
X143254013Y-133406764D02*
X143206393Y-133454383D01*
X143206393Y-133454383D02*
X143111155Y-133502002D01*
X143111155Y-133502002D02*
X143015917Y-133502002D01*
X143015917Y-133502002D02*
X142920679Y-133454383D01*
X142920679Y-133454383D02*
X142873060Y-133406764D01*
X142873060Y-133406764D02*
X142825441Y-133311526D01*
X142825441Y-133311526D02*
X142777822Y-133121050D01*
X142777822Y-133121050D02*
X142730203Y-133025812D01*
X142730203Y-133025812D02*
X142682584Y-132978193D01*
X142682584Y-132978193D02*
X142587346Y-132930574D01*
X142587346Y-132930574D02*
X142492108Y-132930574D01*
X142492108Y-132930574D02*
X142396870Y-132978193D01*
X142396870Y-132978193D02*
X142349251Y-133025812D01*
X142349251Y-133025812D02*
X142301632Y-133121050D01*
X142301632Y-133121050D02*
X142301632Y-133359145D01*
X142301632Y-133359145D02*
X142349251Y-133502002D01*
X142301632Y-133835336D02*
X143301632Y-134073431D01*
X143301632Y-134073431D02*
X142587346Y-134263907D01*
X142587346Y-134263907D02*
X143301632Y-134454383D01*
X143301632Y-134454383D02*
X142301632Y-134692479D01*
X143301632Y-135597240D02*
X143301632Y-135025812D01*
X143301632Y-135311526D02*
X142301632Y-135311526D01*
X142301632Y-135311526D02*
X142444489Y-135216288D01*
X142444489Y-135216288D02*
X142539727Y-135121050D01*
X142539727Y-135121050D02*
X142587346Y-135025812D01*
X135357822Y-98668192D02*
X135405441Y-98811049D01*
X135405441Y-98811049D02*
X135453060Y-98858668D01*
X135453060Y-98858668D02*
X135548298Y-98906287D01*
X135548298Y-98906287D02*
X135691155Y-98906287D01*
X135691155Y-98906287D02*
X135786393Y-98858668D01*
X135786393Y-98858668D02*
X135834013Y-98811049D01*
X135834013Y-98811049D02*
X135881632Y-98715811D01*
X135881632Y-98715811D02*
X135881632Y-98334859D01*
X135881632Y-98334859D02*
X134881632Y-98334859D01*
X134881632Y-98334859D02*
X134881632Y-98668192D01*
X134881632Y-98668192D02*
X134929251Y-98763430D01*
X134929251Y-98763430D02*
X134976870Y-98811049D01*
X134976870Y-98811049D02*
X135072108Y-98858668D01*
X135072108Y-98858668D02*
X135167346Y-98858668D01*
X135167346Y-98858668D02*
X135262584Y-98811049D01*
X135262584Y-98811049D02*
X135310203Y-98763430D01*
X135310203Y-98763430D02*
X135357822Y-98668192D01*
X135357822Y-98668192D02*
X135357822Y-98334859D01*
X134881632Y-99192002D02*
X134881632Y-99763430D01*
X135881632Y-99477716D02*
X134881632Y-99477716D01*
X135881632Y-100620573D02*
X135881632Y-100049145D01*
X135881632Y-100334859D02*
X134881632Y-100334859D01*
X134881632Y-100334859D02*
X135024489Y-100239621D01*
X135024489Y-100239621D02*
X135119727Y-100144383D01*
X135119727Y-100144383D02*
X135167346Y-100049145D01*
D12*
%TO.C,Q1*%
X145076813Y-124523907D02*
X145076813Y-120923907D01*
X145088335Y-120885429D02*
G75*
G02*
X149526814Y-122723907I1838478J-1838478D01*
G01*
X149526813Y-122723907D02*
G75*
G02*
X145088335Y-124562385I-2600000J0D01*
G01*
%TO.C,SW1*%
X137006813Y-139213907D02*
X137006813Y-129313907D01*
X140061813Y-134940574D02*
X138791813Y-134940574D01*
X141846813Y-129313907D02*
X137006813Y-129313907D01*
X141846813Y-139213907D02*
X137006813Y-139213907D01*
X141846813Y-139213907D02*
X141846813Y-129313907D01*
X142086813Y-139453907D02*
X140703813Y-139453907D01*
X142086813Y-139453907D02*
X142086813Y-138070907D01*
X140061813Y-136293907D02*
X138791813Y-136293907D01*
X138791813Y-132233907D01*
X140061813Y-132233907D01*
X140061813Y-136293907D01*
X140061813Y-136293907D02*
X138791813Y-136293907D01*
X138791813Y-134940574D01*
X140061813Y-134940574D01*
X140061813Y-136293907D01*
G36*
X140061813Y-136293907D02*
G01*
X138791813Y-136293907D01*
X138791813Y-134940574D01*
X140061813Y-134940574D01*
X140061813Y-136293907D01*
G37*
%TO.C,BT1*%
X139386813Y-91753907D02*
X141466813Y-89673907D01*
X139386813Y-95253907D02*
X139386813Y-91753907D01*
X139386813Y-109153907D02*
X139386813Y-105653907D01*
X139386813Y-109153907D02*
X141466813Y-111233907D01*
X141466813Y-89673907D02*
X143926813Y-89673907D01*
X141466813Y-111233907D02*
X143926813Y-111233907D01*
X149926813Y-89673907D02*
X150556813Y-89673907D01*
X149926813Y-111233907D02*
X150556813Y-111233907D01*
X150556813Y-89673907D02*
X154506813Y-91113907D01*
X150556813Y-111233907D02*
X154506813Y-109793907D01*
X154506813Y-91113907D02*
G75*
G02*
X155493343Y-94450553I-730001J-2030000D01*
G01*
X155476813Y-106453907D02*
G75*
G02*
X154514982Y-109779150I-1700000J-1310000D01*
G01*
%TD*%
M02*
