M48
; DRILL file {KiCad 9.0.1} date 2025-04-10T00:37:17+0800
; FORMAT={-:-/ absolute / metric / decimal}
; #@! TF.CreationDate,2025-04-10T00:37:17+08:00
; #@! TF.GenerationSoftware,Kicad,Pcbnew,9.0.1
; #@! TF.FileFunction,Plated,1,2,PTH
FMAT,2
METRIC
; #@! TA.AperFunction,Plated,PTH,ComponentDrill
T1C0.750
; #@! TA.AperFunction,Plated,PTH,ComponentDrill
T2C0.800
; #@! TA.AperFunction,Plated,PTH,ComponentDrill
T3C0.900
%
G90
G05
T1
X146.927Y-121.454
X146.927Y-122.724
X146.927Y-123.994
T2
X129.427Y-60.454
X129.427Y-68.074
X139.427Y-130.454
X139.427Y-138.074
X145.027Y-115.954
X148.427Y-115.954
X151.806Y-119.639
X155.927Y-59.954
X155.927Y-67.574
X158.048Y-115.269
X161.233Y-113.148
X166.621Y-107.76
X169.241Y-106.075
X173.612Y-99.833
T3
X134.387Y-85.454
X136.927Y-85.454
X153.887Y-84.454
X156.427Y-84.454
M30
